<svg xmlns="http://www.w3.org/2000/svg" viewBox="0 0 24 32" width="24" height="32" role="img" aria-label="restaurant">
  <path d="M12 1.2C6.62 1.2 2.26 5.56 2.26 10.94c0 6.9 8.32 18.5 8.68 18.99a1.32 1.32 0 0 0 2.12 0c.36-.49 8.68-12.09 8.68-18.99C21.74 5.56 17.38 1.2 12 1.2z" fill="currentColor" stroke="#ffffff" stroke-width="1.6" stroke-linejoin="round"/>
  <g fill="#ffffff" transform="translate(6 5)">
      <path d="M1.7.5v3.7a1.75 1.75 0 0 0 1.15 1.64v5.85h1.3V5.84A1.75 1.75 0 0 0 5.3 4.2V.5H4.25v3.15h-.75V.5H2.45v3.15H1.7z" transform="translate(0)"/>
      <path d="M9.55.5c-1.1.85-1.75 2.3-1.75 3.95 0 1.25.55 2.1 1.3 2.4v4.84h1.35V.5z"/>
  </g>
</svg>
